<mxfile host="app.diagrams.net" modified="2021-08-31T07:24:35.997Z" agent="5.0 (Macintosh; Intel Mac OS X 10_14_6) AppleWebKit/537.36 (KHTML, like Gecko) Chrome/92.0.4515.159 Safari/537.36" etag="7Uq7gYRgE6aXA7v_zCaw" version="14.9.6" type="github">
  <diagram id="prtHgNgQTEPvFCAcTncT" name="Page-1">
    <mxGraphModel dx="1188" dy="576" grid="1" gridSize="10" guides="1" tooltips="1" connect="1" arrows="1" fold="1" page="1" pageScale="1" pageWidth="19900" pageHeight="11900" math="0" shadow="0">
      <root>
        <mxCell id="0" />
        <mxCell id="1" parent="0" />
        <mxCell id="dNxyNK7c78bLwvsdeMH5-19" value="交互引擎" style="swimlane;html=1;childLayout=stackLayout;resizeParent=1;resizeParentMax=0;horizontal=0;startSize=20;horizontalStack=0;" parent="1" vertex="1">
          <mxGeometry x="80" y="120" width="880" height="540" as="geometry" />
        </mxCell>
        <mxCell id="dNxyNK7c78bLwvsdeMH5-20" value="触发器" style="swimlane;html=1;startSize=20;horizontal=0;" parent="dNxyNK7c78bLwvsdeMH5-19" vertex="1">
          <mxGeometry x="20" width="860" height="190" as="geometry">
            <mxRectangle x="20" width="650" height="20" as="alternateBounds" />
          </mxGeometry>
        </mxCell>
        <mxCell id="dNxyNK7c78bLwvsdeMH5-23" value="点击" style="ellipse;whiteSpace=wrap;html=1;" parent="dNxyNK7c78bLwvsdeMH5-20" vertex="1">
          <mxGeometry x="50" y="35" width="50" height="50" as="geometry" />
        </mxCell>
        <mxCell id="DdZnyXihy8uQBoc9g5vu-42" style="edgeStyle=orthogonalEdgeStyle;rounded=0;orthogonalLoop=1;jettySize=auto;html=1;entryX=0.5;entryY=0;entryDx=0;entryDy=0;" edge="1" parent="dNxyNK7c78bLwvsdeMH5-19" source="dNxyNK7c78bLwvsdeMH5-23" target="dNxyNK7c78bLwvsdeMH5-28">
          <mxGeometry relative="1" as="geometry" />
        </mxCell>
        <mxCell id="DdZnyXihy8uQBoc9g5vu-44" value="否" style="edgeStyle=orthogonalEdgeStyle;rounded=0;orthogonalLoop=1;jettySize=auto;html=1;entryX=0.5;entryY=0;entryDx=0;entryDy=0;" edge="1" parent="dNxyNK7c78bLwvsdeMH5-19" source="dNxyNK7c78bLwvsdeMH5-28" target="dNxyNK7c78bLwvsdeMH5-34">
          <mxGeometry relative="1" as="geometry" />
        </mxCell>
        <mxCell id="DdZnyXihy8uQBoc9g5vu-63" style="edgeStyle=orthogonalEdgeStyle;rounded=0;orthogonalLoop=1;jettySize=auto;html=1;entryX=1;entryY=0.5;entryDx=0;entryDy=0;" edge="1" parent="dNxyNK7c78bLwvsdeMH5-19" source="DdZnyXihy8uQBoc9g5vu-62" target="dNxyNK7c78bLwvsdeMH5-34">
          <mxGeometry relative="1" as="geometry">
            <Array as="points">
              <mxPoint x="540" y="440" />
            </Array>
          </mxGeometry>
        </mxCell>
        <mxCell id="DdZnyXihy8uQBoc9g5vu-64" value="是" style="edgeLabel;html=1;align=center;verticalAlign=middle;resizable=0;points=[];" vertex="1" connectable="0" parent="DdZnyXihy8uQBoc9g5vu-63">
          <mxGeometry x="0.175" y="2" relative="1" as="geometry">
            <mxPoint as="offset" />
          </mxGeometry>
        </mxCell>
        <mxCell id="dNxyNK7c78bLwvsdeMH5-21" value="交互判断" style="swimlane;html=1;startSize=20;horizontal=0;" parent="dNxyNK7c78bLwvsdeMH5-19" vertex="1">
          <mxGeometry x="20" y="190" width="860" height="190" as="geometry">
            <mxRectangle x="20" y="20" width="650" height="20" as="alternateBounds" />
          </mxGeometry>
        </mxCell>
        <mxCell id="DdZnyXihy8uQBoc9g5vu-48" value="" style="edgeStyle=orthogonalEdgeStyle;rounded=0;orthogonalLoop=1;jettySize=auto;html=1;" edge="1" parent="dNxyNK7c78bLwvsdeMH5-21" source="dNxyNK7c78bLwvsdeMH5-28" target="DdZnyXihy8uQBoc9g5vu-47">
          <mxGeometry relative="1" as="geometry" />
        </mxCell>
        <mxCell id="DdZnyXihy8uQBoc9g5vu-59" value="是" style="edgeLabel;html=1;align=center;verticalAlign=middle;resizable=0;points=[];" vertex="1" connectable="0" parent="DdZnyXihy8uQBoc9g5vu-48">
          <mxGeometry x="-0.5158" relative="1" as="geometry">
            <mxPoint x="1" as="offset" />
          </mxGeometry>
        </mxCell>
        <mxCell id="dNxyNK7c78bLwvsdeMH5-28" value="是否配置&lt;br&gt;判断条件" style="rhombus;whiteSpace=wrap;html=1;fontFamily=Helvetica;fontSize=12;fontColor=#000000;align=center;" parent="dNxyNK7c78bLwvsdeMH5-21" vertex="1">
          <mxGeometry x="37.5" y="60" width="75" height="70" as="geometry" />
        </mxCell>
        <mxCell id="DdZnyXihy8uQBoc9g5vu-50" value="" style="edgeStyle=orthogonalEdgeStyle;rounded=0;orthogonalLoop=1;jettySize=auto;html=1;" edge="1" parent="dNxyNK7c78bLwvsdeMH5-21" source="DdZnyXihy8uQBoc9g5vu-47" target="DdZnyXihy8uQBoc9g5vu-49">
          <mxGeometry relative="1" as="geometry" />
        </mxCell>
        <mxCell id="DdZnyXihy8uQBoc9g5vu-51" value="否" style="edgeLabel;html=1;align=center;verticalAlign=middle;resizable=0;points=[];" vertex="1" connectable="0" parent="DdZnyXihy8uQBoc9g5vu-50">
          <mxGeometry x="-0.4" y="1" relative="1" as="geometry">
            <mxPoint as="offset" />
          </mxGeometry>
        </mxCell>
        <mxCell id="DdZnyXihy8uQBoc9g5vu-47" value="判断列表&lt;br&gt;长度===0" style="rhombus;whiteSpace=wrap;html=1;" vertex="1" parent="dNxyNK7c78bLwvsdeMH5-21">
          <mxGeometry x="160" y="55" width="80" height="80" as="geometry" />
        </mxCell>
        <mxCell id="DdZnyXihy8uQBoc9g5vu-49" value="1.取出一条判断，列表-1&lt;br&gt;2.构建条件对象&lt;br&gt;3.执行条件对象&lt;br&gt;4.根据条件列表模式和3结果模拟熔断" style="whiteSpace=wrap;html=1;" vertex="1" parent="dNxyNK7c78bLwvsdeMH5-21">
          <mxGeometry x="290" y="52.5" width="150" height="85" as="geometry" />
        </mxCell>
        <mxCell id="DdZnyXihy8uQBoc9g5vu-66" value="" style="edgeStyle=orthogonalEdgeStyle;rounded=0;orthogonalLoop=1;jettySize=auto;html=1;" edge="1" parent="dNxyNK7c78bLwvsdeMH5-21" source="DdZnyXihy8uQBoc9g5vu-62">
          <mxGeometry relative="1" as="geometry">
            <mxPoint x="600" y="95" as="targetPoint" />
          </mxGeometry>
        </mxCell>
        <mxCell id="DdZnyXihy8uQBoc9g5vu-67" value="否" style="edgeLabel;html=1;align=center;verticalAlign=middle;resizable=0;points=[];" vertex="1" connectable="0" parent="DdZnyXihy8uQBoc9g5vu-66">
          <mxGeometry x="0.28" y="-2" relative="1" as="geometry">
            <mxPoint x="-6" y="-2" as="offset" />
          </mxGeometry>
        </mxCell>
        <mxCell id="DdZnyXihy8uQBoc9g5vu-62" value="是否满足&lt;br&gt;条件" style="rhombus;whiteSpace=wrap;html=1;" vertex="1" parent="dNxyNK7c78bLwvsdeMH5-21">
          <mxGeometry x="480" y="55" width="80" height="80" as="geometry" />
        </mxCell>
        <mxCell id="DdZnyXihy8uQBoc9g5vu-53" value="" style="edgeStyle=orthogonalEdgeStyle;rounded=0;orthogonalLoop=1;jettySize=auto;html=1;entryX=0;entryY=0.5;entryDx=0;entryDy=0;entryPerimeter=0;" edge="1" parent="dNxyNK7c78bLwvsdeMH5-21" source="DdZnyXihy8uQBoc9g5vu-49" target="DdZnyXihy8uQBoc9g5vu-62">
          <mxGeometry relative="1" as="geometry">
            <mxPoint x="490" y="95" as="targetPoint" />
          </mxGeometry>
        </mxCell>
        <mxCell id="DdZnyXihy8uQBoc9g5vu-76" value="" style="edgeStyle=orthogonalEdgeStyle;rounded=0;orthogonalLoop=1;jettySize=auto;html=1;" edge="1" parent="dNxyNK7c78bLwvsdeMH5-21" source="DdZnyXihy8uQBoc9g5vu-71" target="DdZnyXihy8uQBoc9g5vu-75">
          <mxGeometry relative="1" as="geometry" />
        </mxCell>
        <mxCell id="DdZnyXihy8uQBoc9g5vu-71" value="是否有&lt;br&gt;其它判断" style="rhombus;whiteSpace=wrap;html=1;" vertex="1" parent="dNxyNK7c78bLwvsdeMH5-21">
          <mxGeometry x="600" y="55" width="80" height="80" as="geometry" />
        </mxCell>
        <mxCell id="DdZnyXihy8uQBoc9g5vu-75" value="结束" style="whiteSpace=wrap;html=1;" vertex="1" parent="dNxyNK7c78bLwvsdeMH5-21">
          <mxGeometry x="710" y="65" width="120" height="60" as="geometry" />
        </mxCell>
        <mxCell id="DdZnyXihy8uQBoc9g5vu-83" value="loop" style="edgeStyle=orthogonalEdgeStyle;rounded=0;orthogonalLoop=1;jettySize=auto;html=1;" edge="1" parent="dNxyNK7c78bLwvsdeMH5-21" source="DdZnyXihy8uQBoc9g5vu-81" target="DdZnyXihy8uQBoc9g5vu-82">
          <mxGeometry relative="1" as="geometry">
            <Array as="points">
              <mxPoint x="450" y="30" />
              <mxPoint x="140" y="30" />
            </Array>
          </mxGeometry>
        </mxCell>
        <mxCell id="DdZnyXihy8uQBoc9g5vu-81" value="" style="shape=waypoint;sketch=0;fillStyle=solid;size=6;pointerEvents=1;points=[];fillColor=none;resizable=0;rotatable=0;perimeter=centerPerimeter;snapToPoint=1;" vertex="1" parent="dNxyNK7c78bLwvsdeMH5-21">
          <mxGeometry x="430" y="75" width="40" height="40" as="geometry" />
        </mxCell>
        <mxCell id="DdZnyXihy8uQBoc9g5vu-82" value="" style="shape=waypoint;sketch=0;fillStyle=solid;size=6;pointerEvents=1;points=[];fillColor=none;resizable=0;rotatable=0;perimeter=centerPerimeter;snapToPoint=1;" vertex="1" parent="dNxyNK7c78bLwvsdeMH5-21">
          <mxGeometry x="120" y="75" width="40" height="40" as="geometry" />
        </mxCell>
        <mxCell id="dNxyNK7c78bLwvsdeMH5-22" value="动作" style="swimlane;html=1;startSize=20;horizontal=0;" parent="dNxyNK7c78bLwvsdeMH5-19" vertex="1">
          <mxGeometry x="20" y="380" width="860" height="160" as="geometry">
            <mxRectangle x="20" y="40" width="650" height="20" as="alternateBounds" />
          </mxGeometry>
        </mxCell>
        <mxCell id="DdZnyXihy8uQBoc9g5vu-73" style="edgeStyle=orthogonalEdgeStyle;rounded=0;orthogonalLoop=1;jettySize=auto;html=1;exitX=0.5;exitY=1;exitDx=0;exitDy=0;entryX=0.5;entryY=0;entryDx=0;entryDy=0;" edge="1" parent="dNxyNK7c78bLwvsdeMH5-22" source="dNxyNK7c78bLwvsdeMH5-34" target="DdZnyXihy8uQBoc9g5vu-70">
          <mxGeometry relative="1" as="geometry" />
        </mxCell>
        <mxCell id="dNxyNK7c78bLwvsdeMH5-34" value="执行动作" style="rounded=0;whiteSpace=wrap;html=1;fontFamily=Helvetica;fontSize=12;fontColor=#000000;align=center;" parent="dNxyNK7c78bLwvsdeMH5-22" vertex="1">
          <mxGeometry x="35" y="30" width="80" height="60" as="geometry" />
        </mxCell>
        <mxCell id="DdZnyXihy8uQBoc9g5vu-70" value="结束" style="rounded=0;whiteSpace=wrap;html=1;" vertex="1" parent="dNxyNK7c78bLwvsdeMH5-22">
          <mxGeometry x="35" y="110" width="85" height="40" as="geometry" />
        </mxCell>
        <mxCell id="DdZnyXihy8uQBoc9g5vu-72" style="edgeStyle=orthogonalEdgeStyle;rounded=0;orthogonalLoop=1;jettySize=auto;html=1;" edge="1" parent="1" source="DdZnyXihy8uQBoc9g5vu-71">
          <mxGeometry relative="1" as="geometry">
            <mxPoint x="240" y="405" as="targetPoint" />
            <Array as="points">
              <mxPoint x="740" y="460" />
              <mxPoint x="240" y="460" />
            </Array>
          </mxGeometry>
        </mxCell>
        <mxCell id="DdZnyXihy8uQBoc9g5vu-74" value="是" style="edgeLabel;html=1;align=center;verticalAlign=middle;resizable=0;points=[];" vertex="1" connectable="0" parent="DdZnyXihy8uQBoc9g5vu-72">
          <mxGeometry x="-0.1788" y="-4" relative="1" as="geometry">
            <mxPoint as="offset" />
          </mxGeometry>
        </mxCell>
      </root>
    </mxGraphModel>
  </diagram>
</mxfile>
